<svg width="62" height="101" viewBox="0 0 62 101" fill="none" xmlns="http://www.w3.org/2000/svg">
<path fill-rule="evenodd" clip-rule="evenodd" d="M15.1168 48.1191L2.45439 50.2047L14.5558 52.198C2.01932 76.1174 -3.46428 96.6356 2.27877 99.9513C7.09739 102.733 18.4521 92.6159 30.5156 75.8097L31 78.7504L31.7773 74.0313C32.0729 73.6098 32.3687 73.1844 32.6648 72.7553C37.7113 76.5876 42.5667 78.0023 45.9283 76.0614C51.028 73.1171 51.1589 63.3352 46.8832 52.2904L59.5456 50.2047L47.4442 48.2115C59.9807 24.2921 65.4643 3.77386 59.7212 0.458105C54.9026 -2.32392 43.5479 7.7936 31.4844 24.5997L31 21.6591L30.2227 26.3782C29.9271 26.7997 29.6313 27.225 29.3352 27.6541C24.2887 23.8219 19.4333 22.4072 16.0717 24.3481C10.972 27.2923 10.8411 37.0743 15.1168 48.1191ZM18.1676 89.4243C21.9572 85.385 26.0767 80.2755 30.2765 74.358L29.5804 70.132C25.98 66.7416 22.4164 62.2281 19.356 56.9274C18.5252 55.4883 17.7631 54.0462 17.071 52.6123L15.6349 52.3758C10.0612 62.9723 5.88096 72.8927 3.45105 80.9277C1.91798 85.9971 1.09912 90.2598 1.04131 93.4441C1.0124 95.0366 1.17534 96.3048 1.49803 97.2506C1.81783 98.188 2.27146 98.7485 2.79778 99.0524C3.32411 99.3563 4.03638 99.4688 5.00803 99.2771C5.98846 99.0837 7.16826 98.5907 8.53296 97.7694C11.2617 96.1272 14.5439 93.2867 18.1676 89.4243ZM18.3283 52.8194C18.9211 54.0121 19.5635 55.2107 20.2549 56.4084C22.9893 61.1445 26.1205 65.2234 29.2965 68.4085L26.963 54.2417L18.3283 52.8194ZM32.4352 71.2551C32.3763 71.2073 32.3173 71.1591 32.2584 71.1106L35.037 54.2417L43.7882 52.8002C43.1236 53.9974 42.4423 55.2006 41.7451 56.4084C38.6883 61.7029 35.5515 66.687 32.4352 71.2551ZM33.2529 71.8985C33.4788 72.0706 33.7042 72.2376 33.9289 72.3994C38.6795 75.8201 42.7677 76.6876 45.4093 75.1624C48.051 73.6373 49.3439 69.663 48.7567 63.8386C48.4132 60.4308 47.433 56.5407 45.8365 52.4629L45.0933 52.5853C44.3005 54.0246 43.4838 55.4729 42.644 56.9274C39.5632 62.2636 36.399 67.29 33.2529 71.8985ZM44.929 47.7972L46.3651 48.0337C51.9388 37.4372 56.119 27.5167 58.549 19.4817C60.082 14.4123 60.9009 10.1497 60.9587 6.96537C60.9876 5.37285 60.8247 4.10462 60.502 3.15882C60.1822 2.22149 59.7285 1.66093 59.2022 1.35706C58.6759 1.05318 57.9636 0.940608 56.992 1.13232C56.0115 1.32576 54.8317 1.81876 53.467 2.64006C50.7383 4.28227 47.4561 7.12277 43.8324 10.9851C40.0428 15.0244 35.9233 20.134 31.7235 26.0515L32.4196 30.2774C36.02 33.6678 39.5836 38.1813 42.644 43.4821C43.4749 44.9211 44.2369 46.3633 44.929 47.7972ZM32.7035 32.0009C35.8795 35.1861 39.0107 39.2649 41.7451 44.0011C42.4365 45.1987 43.0789 46.3973 43.6717 47.5901L35.037 46.1678L32.7035 32.0009ZM29.5648 29.1543C29.6237 29.2022 29.6827 29.2503 29.7416 29.2988L26.963 46.1678L18.2117 47.6093C18.8764 46.4121 19.5576 45.2088 20.2549 44.0011C23.3117 38.7066 26.4485 33.7224 29.5648 29.1543ZM28.7471 28.511C25.6011 33.1195 22.4368 38.1459 19.356 43.4821C18.5162 44.9366 17.6995 46.3849 16.9067 47.8242L16.1636 47.9466C14.567 43.8687 13.5868 39.9787 13.2433 36.5708C12.6561 30.7464 13.949 26.7722 16.5907 25.247C19.2323 23.7219 23.3206 24.5893 28.0711 28.01C28.2958 28.1719 28.5212 28.3389 28.7471 28.511Z" fill="#FFCF15"/>
</svg>
