<svg width="119" height="151" viewBox="0 0 119 151" fill="none" xmlns="http://www.w3.org/2000/svg">
<path fill-rule="evenodd" clip-rule="evenodd" d="M63.1625 18.1858L61.5657 30.9598C58.4352 56.0023 39.2103 76.003 14.3153 80.124C39.2103 84.2451 58.4352 104.246 61.5657 129.288L63.1625 142.062L64.7594 129.288C67.8899 104.246 87.1148 84.2451 112.01 80.124C87.1148 76.003 67.8899 56.0023 64.7594 30.9598L63.1625 18.1858ZM59.5811 30.7117L62.1702 10L64.1548 10L66.7439 30.7117C69.7664 54.8902 88.3375 74.1979 112.38 78.1581L118.325 79.1373L118.325 81.1107L112.38 82.09C88.3375 86.0502 69.7664 105.358 66.7439 129.536L64.1548 150.248H62.1702L59.5811 129.536C56.5587 105.358 37.9876 86.0502 13.9448 82.0899L8 81.1107L8 79.1373L13.9448 78.1581C37.9876 74.1979 56.5586 54.8902 59.5811 30.7117Z" fill="#FFCF15"/>
<path fill-rule="evenodd" clip-rule="evenodd" d="M36.1007 119.929C46.5599 113.376 59.6022 102.776 72.7085 89.67C85.8147 76.5637 96.4149 63.5215 102.968 53.0622C106.253 47.8187 108.46 43.3193 109.49 39.8433C110.005 38.104 110.194 36.7233 110.135 35.6879C110.076 34.6688 109.789 34.1197 109.478 33.8086C109.167 33.4974 108.618 33.2106 107.599 33.1519C106.563 33.0923 105.183 33.2814 103.443 33.7966C99.9673 34.8264 95.4679 37.0338 90.2243 40.3189C79.7651 46.8717 66.7228 57.4719 53.6166 70.5781C40.5103 83.6844 29.9101 96.7267 23.3574 107.186C20.0722 112.429 17.8649 116.929 16.8351 120.405C16.3198 122.144 16.1307 123.525 16.1903 124.56C16.249 125.579 16.5359 126.128 16.847 126.44C17.1582 126.751 17.7073 127.038 18.7263 127.096C19.7617 127.156 21.1425 126.967 22.8817 126.452C26.3577 125.422 30.8571 123.214 36.1007 119.929ZM15.4328 127.854C21.4859 133.907 47.7623 117.445 74.1227 91.0842C100.483 64.7238 116.945 38.4475 110.892 32.3944C104.839 26.3412 78.5628 42.8035 52.2024 69.1639C25.842 95.5243 9.37968 121.801 15.4328 127.854Z" fill="#FFCF15"/>
<path fill-rule="evenodd" clip-rule="evenodd" d="M23.3574 53.0623C29.9101 63.5215 40.5103 76.5638 53.6166 89.6701C66.7228 102.776 79.7651 113.377 90.2244 119.929C95.4679 123.214 99.9673 125.422 103.443 126.452C105.183 126.967 106.563 127.156 107.599 127.096C108.618 127.038 109.167 126.751 109.478 126.44C109.789 126.128 110.076 125.579 110.135 124.56C110.194 123.525 110.005 122.144 109.49 120.405C108.46 116.929 106.253 112.43 102.968 107.186C96.4149 96.7267 85.8147 83.6844 72.7085 70.5782C59.6022 57.4719 46.5599 46.8717 36.1007 40.319C30.8571 37.0338 26.3577 34.8265 22.8817 33.7967C21.1425 33.2814 19.7617 33.0923 18.7263 33.152C17.7073 33.2106 17.1582 33.4975 16.847 33.8086C16.5359 34.1198 16.249 34.6689 16.1904 35.6879C16.1307 36.7233 16.3198 38.1041 16.8351 39.8433C17.8649 43.3193 20.0722 47.8187 23.3574 53.0623ZM15.4328 32.3944C9.37969 38.4475 25.842 64.7239 52.2024 91.0843C78.5628 117.445 104.839 133.907 110.892 127.854C116.945 121.801 100.483 95.5244 74.1227 69.164C47.7623 42.8036 21.4859 26.3413 15.4328 32.3944Z" fill="#FFCF15"/>
</svg>
