<svg width="73" height="74" viewBox="0 0 73 74" fill="none" xmlns="http://www.w3.org/2000/svg">
<path fill-rule="evenodd" clip-rule="evenodd" d="M40.2624 33.1864L36.6496 11.2526L33.0368 33.1864L11.103 36.7992L33.0368 40.412L36.6496 62.3457L40.2624 40.412L62.1962 36.7992L40.2624 33.1864ZM69.5594 36.7992L41.3037 41.4533L36.6496 69.709L31.9954 41.4533L3.73975 36.7992L31.9954 32.145L36.6496 3.88934L41.3037 32.145L69.5594 36.7992Z" fill="#FFCF15"/>
<path fill-rule="evenodd" clip-rule="evenodd" d="M43.703 36.7765L40.0902 14.8428L36.4773 36.7765L14.5436 40.3893L36.4773 44.0022L40.0902 65.9359L43.703 44.0022L65.6367 40.3893L43.703 36.7765ZM73 40.3893L44.7443 45.0435L40.0902 73.2992L35.436 45.0435L7.18033 40.3893L35.436 35.7352L40.0902 7.47951L44.7443 35.7352L73 40.3893Z" fill="#FFCF15"/>
<path d="M32.9098 0L37.564 28.2557L65.8197 32.9098L37.564 37.564L32.9098 65.8197L28.2557 37.564L0 32.9098L28.2557 28.2557L32.9098 0Z" fill="#FFCF15"/>
</svg>
