<svg width="120" height="145" viewBox="0 0 120 145" fill="none" xmlns="http://www.w3.org/2000/svg">
<path fill-rule="evenodd" clip-rule="evenodd" d="M80.0577 0.945323C77.5539 0.109585 74.8988 -0.174364 72.2748 0.112978C69.6509 0.400319 67.1202 1.25214 64.8565 2.60995L27.1736 25.2197C24.4649 26.8449 22.2232 29.1439 20.6669 31.8928C19.1105 34.6417 18.2925 37.7468 18.2925 40.9056V163.777H9.14621C6.72045 163.777 4.39405 164.741 2.67878 166.456C0.963506 168.172 -0.00012207 170.498 -0.00012207 172.924C-0.00012207 175.35 0.963506 177.676 2.67878 179.391C4.39405 181.107 6.72045 182.07 9.14621 182.07H173.78C176.206 182.07 178.532 181.107 180.248 179.391C181.963 177.676 182.927 175.35 182.927 172.924C182.927 170.498 181.963 168.172 180.248 166.456C178.532 164.741 176.206 163.777 173.78 163.777H164.634V42.3142C164.632 38.4776 163.423 34.7389 161.179 31.6268C158.936 28.5148 155.77 26.187 152.131 24.9727L80.0577 0.945323ZM146.341 163.777V42.3142L82.3169 20.9849V163.777H146.341ZM64.0242 24.4422L36.5852 40.9056V163.777H64.0242V24.4422Z" fill="white" fill-opacity="0.1"/>
</svg>
