<svg width="18" height="21" viewBox="0 0 18 21" fill="none" xmlns="http://www.w3.org/2000/svg">
<path d="M14.2412 3.5574C13.5 2.71133 13.0916 1.62477 13.0919 0.5H9.74179V13.9439C9.71595 14.6714 9.4088 15.3605 8.88503 15.8661C8.36125 16.3716 7.66173 16.6542 6.93375 16.6543C5.39421 16.6543 4.11488 15.3967 4.11488 13.8355C4.11488 11.9707 5.91462 10.5721 7.76858 11.1467V7.72066C4.02814 7.22194 0.753906 10.1276 0.753906 13.8355C0.753906 17.4458 3.74625 20.0153 6.92291 20.0153C10.3272 20.0153 13.0919 17.2506 13.0919 13.8355V7.01594C14.4504 7.99155 16.0814 8.51499 17.7539 8.51212V5.16199C17.7539 5.16199 15.7156 5.25957 14.2412 3.5574Z" fill="#4A235B"/>
</svg>
