<svg width="41" height="41" viewBox="0 0 41 41" fill="none" xmlns="http://www.w3.org/2000/svg">
<path d="M34.8295 5.94898C32.9744 4.07513 30.7648 2.58941 28.3295 1.57847C25.8942 0.567526 23.282 0.0516037 20.6452 0.0607895C9.5973 0.0607895 0.593027 9.06506 0.593027 20.113C0.593027 23.654 1.52381 27.0938 3.26396 30.129L0.431152 40.5294L11.0542 37.7371C13.9882 39.3356 17.2863 40.1855 20.6452 40.1855C31.6932 40.1855 40.6975 31.1812 40.6975 20.1332C40.6975 14.7711 38.6133 9.7328 34.8295 5.94898ZM20.6452 36.7861C17.6506 36.7861 14.7166 35.9767 12.1468 34.4591L11.5398 34.0949L5.22669 35.7541L6.90614 29.6029L6.50145 28.9756C4.83767 26.3188 3.95423 23.2478 3.95192 20.113C3.95192 10.9266 11.4386 3.43992 20.625 3.43992C25.0766 3.43992 29.2651 5.18007 32.4014 8.33663C33.9543 9.88246 35.185 11.7211 36.0221 13.7461C36.8592 15.7711 37.286 17.9421 37.2779 20.1332C37.3183 29.3196 29.8316 36.7861 20.6452 36.7861ZM29.7912 24.3217C29.2853 24.0789 26.8167 22.8649 26.3716 22.6828C25.9062 22.5209 25.5824 22.44 25.2384 22.9256C24.8945 23.4314 23.9434 24.5646 23.6602 24.8883C23.3769 25.2323 23.0734 25.2728 22.5675 25.0097C22.0616 24.7669 20.4429 24.2206 18.5409 22.5209C17.0435 21.1854 16.0521 19.5464 15.7485 19.0406C15.4653 18.5347 15.7081 18.2717 15.9711 18.0086C16.1937 17.7861 16.477 17.4218 16.7198 17.1386C16.9626 16.8553 17.0638 16.6327 17.2256 16.309C17.3875 15.965 17.3066 15.6817 17.1852 15.4389C17.0638 15.1961 16.0521 12.7275 15.6474 11.7158C15.2427 10.7445 14.8178 10.8659 14.5142 10.8457H13.543C13.199 10.8457 12.6729 10.9671 12.2075 11.4729C11.7624 11.9788 10.4674 13.1929 10.4674 15.6615C10.4674 18.13 12.2682 20.5177 12.511 20.8414C12.7539 21.1854 16.0521 26.244 21.0702 28.4091C22.264 28.9352 23.1948 29.2387 23.9232 29.4613C25.117 29.8457 26.2097 29.785 27.0798 29.6636C28.051 29.522 30.0542 28.4495 30.4589 27.276C30.8838 26.1024 30.8838 25.1109 30.7422 24.8883C30.6005 24.6657 30.297 24.5646 29.7912 24.3217Z" fill="#7F369F"/>
</svg>
