<svg width="21" height="21" viewBox="0 0 21 21" fill="none" xmlns="http://www.w3.org/2000/svg">
<path d="M11.3616 0.236816C12.4866 0.239816 13.0576 0.245816 13.5506 0.259816L13.7446 0.266816C13.9686 0.274816 14.1896 0.284816 14.4566 0.296816C15.5206 0.346816 16.2466 0.514817 16.8836 0.761817C17.5436 1.01582 18.0996 1.35982 18.6556 1.91482C19.1643 2.41455 19.5578 3.01929 19.8086 3.68682C20.0556 4.32382 20.2236 5.04982 20.2736 6.11482C20.2856 6.38082 20.2956 6.60182 20.3036 6.82682L20.3096 7.02082C20.3246 7.51282 20.3306 8.08382 20.3326 9.20882L20.3336 9.95482V11.2648C20.336 11.9942 20.3283 12.7236 20.3106 13.4528L20.3046 13.6468C20.2966 13.8718 20.2866 14.0928 20.2746 14.3588C20.2246 15.4238 20.0546 16.1488 19.8086 16.7868C19.5578 17.4543 19.1643 18.0591 18.6556 18.5588C18.1558 19.0675 17.5511 19.461 16.8836 19.7118C16.2466 19.9588 15.5206 20.1268 14.4566 20.1768L13.7446 20.2068L13.5506 20.2128C13.0576 20.2268 12.4866 20.2338 11.3616 20.2358L10.6156 20.2368H9.30658C8.57684 20.2394 7.8471 20.2317 7.11758 20.2138L6.92358 20.2078C6.68619 20.1988 6.44885 20.1885 6.21158 20.1768C5.14758 20.1268 4.42158 19.9588 3.78358 19.7118C3.11641 19.4609 2.51202 19.0674 2.01258 18.5588C1.50352 18.0592 1.10969 17.4544 0.858577 16.7868C0.611577 16.1498 0.443577 15.4238 0.393577 14.3588L0.363577 13.6468L0.358577 13.4528C0.340143 12.7236 0.331809 11.9942 0.333577 11.2648V9.20882C0.330809 8.47942 0.338143 7.75001 0.355577 7.02082L0.362577 6.82682C0.370577 6.60182 0.380577 6.38082 0.392577 6.11482C0.442577 5.04982 0.610577 4.32482 0.857577 3.68682C1.10927 3.01901 1.5038 2.41425 2.01358 1.91482C2.51273 1.40637 3.11676 1.01289 3.78358 0.761817C4.42158 0.514817 5.14658 0.346816 6.21158 0.296816C6.47758 0.284816 6.69958 0.274816 6.92358 0.266816L7.11758 0.260816C7.84677 0.243049 8.57617 0.235382 9.30558 0.237816L11.3616 0.236816ZM10.3336 5.23682C9.00749 5.23682 7.73572 5.7636 6.79804 6.70128C5.86036 7.63896 5.33358 8.91073 5.33358 10.2368C5.33358 11.5629 5.86036 12.8347 6.79804 13.7724C7.73572 14.71 9.00749 15.2368 10.3336 15.2368C11.6597 15.2368 12.9314 14.71 13.8691 13.7724C14.8068 12.8347 15.3336 11.5629 15.3336 10.2368C15.3336 8.91073 14.8068 7.63896 13.8691 6.70128C12.9314 5.7636 11.6597 5.23682 10.3336 5.23682ZM10.3336 7.23682C10.7275 7.23675 11.1177 7.31428 11.4817 7.46499C11.8457 7.61569 12.1764 7.83661 12.455 8.11514C12.7337 8.39367 12.9547 8.72435 13.1055 9.0883C13.2563 9.45226 13.334 9.84235 13.3341 10.2363C13.3341 10.6303 13.2566 11.0204 13.1059 11.3844C12.9552 11.7484 12.7343 12.0792 12.4558 12.3578C12.1772 12.6364 11.8465 12.8574 11.4826 13.0083C11.1186 13.1591 10.7285 13.2368 10.3346 13.2368C9.53893 13.2368 8.77587 12.9207 8.21326 12.3581C7.65065 11.7955 7.33458 11.0325 7.33458 10.2368C7.33458 9.44117 7.65065 8.6781 8.21326 8.1155C8.77587 7.55289 9.53893 7.23682 10.3346 7.23682M15.5846 3.73682C15.2531 3.73682 14.9351 3.86851 14.7007 4.10293C14.4663 4.33735 14.3346 4.6553 14.3346 4.98682C14.3346 5.31834 14.4663 5.63628 14.7007 5.8707C14.9351 6.10512 15.2531 6.23682 15.5846 6.23682C15.9161 6.23682 16.234 6.10512 16.4685 5.8707C16.7029 5.63628 16.8346 5.31834 16.8346 4.98682C16.8346 4.6553 16.7029 4.33735 16.4685 4.10293C16.234 3.86851 15.9161 3.73682 15.5846 3.73682Z" fill="white"/>
</svg>
